<svg width="704" height="184" viewBox="0 0 704 184" fill="none" xmlns="http://www.w3.org/2000/svg">
  <defs>
    <linearGradient id="wordmark-bg" x1="20" y1="18" x2="150" y2="166" gradientUnits="userSpaceOnUse">
      <stop stop-color="#08252C"/>
      <stop offset="0.52" stop-color="#0F766E"/>
      <stop offset="1" stop-color="#14B8A6"/>
    </linearGradient>
    <linearGradient id="wordmark-ribbon" x1="42" y1="132" x2="130" y2="44" gradientUnits="userSpaceOnUse">
      <stop stop-color="#CCFBF1"/>
      <stop offset="1" stop-color="#99F6E4"/>
    </linearGradient>
    <linearGradient id="wordmark-panel" x1="68" y1="64" x2="114" y2="112" gradientUnits="userSpaceOnUse">
      <stop stop-color="#0F172A" stop-opacity="0.28"/>
      <stop offset="1" stop-color="#0B1F2A" stop-opacity="0.08"/>
    </linearGradient>
  </defs>

  <rect x="20" y="20" width="144" height="144" rx="34" fill="url(#wordmark-bg)"/>
  <rect x="20.75" y="20.75" width="142.5" height="142.5" rx="33.25" stroke="white" stroke-opacity="0.12" stroke-width="1.5"/>

  <path d="M40 111.52C40 78.9132 66.433 52.48 99.04 52.48H139.36V78.4H99.04C80.7479 78.4 65.92 93.2279 65.92 111.52V133.12H40V111.52Z" fill="#F8FAFC"/>
  <path d="M143.68 74.08C143.68 106.687 117.247 133.12 84.64 133.12H44.32V107.2H84.64C102.932 107.2 117.76 92.3721 117.76 74.08V52.48H143.68V74.08Z" fill="url(#wordmark-ribbon)"/>

  <rect x="66.64" y="66.64" width="50.4" height="50.4" rx="14" fill="url(#wordmark-panel)" stroke="white" stroke-opacity="0.22" stroke-width="1.2"/>
  <rect x="75.28" y="76" width="33.12" height="5.76" rx="2.88" fill="#E6FFFB" fill-opacity="0.92"/>
  <rect x="75.28" y="87.52" width="13.68" height="13.68" rx="4.32" fill="#F8FAFC"/>
  <rect x="94.72" y="87.52" width="13.68" height="13.68" rx="4.32" fill="#99F6E4"/>
  <rect x="75.28" y="105.52" width="33.12" height="4.32" rx="2.16" fill="#E6FFFB" fill-opacity="0.5"/>
  <circle cx="125.68" cy="59.68" r="7.2" fill="#F59E0B"/>
  <circle cx="125.68" cy="59.68" r="2.88" fill="#FEF3C7"/>

  <text x="196" y="78" fill="#E2E8F0" font-size="24" font-weight="700" letter-spacing="0.22em" font-family="'Trebuchet MS', 'Avenir Next', 'Microsoft YaHei', sans-serif">LUCKYCOLOR</text>
  <text x="196" y="124" fill="#F8FAFC" font-size="54" font-weight="700" letter-spacing="0.01em" font-family="'Trebuchet MS', 'Avenir Next', 'Microsoft YaHei', sans-serif">Admin</text>
  <text x="446" y="124" fill="#99F6E4" font-size="54" font-weight="700" letter-spacing="0.01em" font-family="'Trebuchet MS', 'Avenir Next', 'Microsoft YaHei', sans-serif">SaaS</text>
  <text x="198" y="154" fill="#94A3B8" font-size="22" font-weight="600" letter-spacing="0.08em" font-family="'Trebuchet MS', 'Avenir Next', 'Microsoft YaHei', sans-serif">PLATFORM CONSOLE</text>
</svg>
